<svg width="24" height="24" viewBox="0 0 24 24" fill="none" xmlns="http://www.w3.org/2000/svg">
<path d="M14.067 7.53392L11.8023 9.79863C11.5996 10.0013 11.5963 10.3267 11.7948 10.5253L13.473 12.2035C13.6716 12.4021 13.997 12.3988 14.1997 12.196L16.4644 9.93133L17.8447 11.3116C18.4855 11.9524 19.5971 11.4825 19.6066 10.5669L19.66 5.35546C19.6659 4.78786 19.2105 4.33247 18.6429 4.33833L13.4315 4.39183C12.5159 4.40122 12.046 5.51291 12.6868 6.15368L14.067 7.53392Z" fill="black" fill-opacity="0.5"/>
<path d="M9.93494 16.4622L12.1996 14.1975C12.4024 13.9947 12.4057 13.6694 12.2071 13.4708L10.5289 11.7926C10.3303 11.594 10.005 11.5973 9.80224 11.8001L7.53753 14.0648L6.15725 12.6845C5.51648 12.0437 4.40483 12.5136 4.3954 13.4292L4.34191 18.6406C4.33608 19.2082 4.79147 19.6636 5.35904 19.6578L10.5705 19.6043C11.4861 19.5949 11.9559 18.4832 11.3152 17.8424L9.93494 16.4622Z" fill="black" fill-opacity="0.5"/>
</svg>
