<svg width="24" height="23" viewBox="0 0 24 23" fill="none" xmlns="http://www.w3.org/2000/svg">
<path d="M18.2689 8.12623L20.5336 5.86152C20.7363 5.65881 20.7397 5.33344 20.5411 5.13484L18.8629 3.45666C18.6643 3.25806 18.3389 3.2614 18.1362 3.46412L15.8715 5.72883L14.4912 4.34855C13.8505 3.70778 12.7388 4.17765 12.7294 5.09324L12.6759 10.3047C12.6701 10.8723 13.1255 11.3277 13.693 11.3218L18.9045 11.2683C19.82 11.2589 20.2899 10.1472 19.6492 9.50648L18.2689 8.12623Z" fill="black" fill-opacity="0.5"/>
<path d="M5.73108 15.862L3.46637 18.1268C3.26365 18.3295 3.26031 18.6548 3.45891 18.8534L5.13709 20.5316C5.33569 20.7302 5.66106 20.7269 5.86378 20.5242L8.12849 18.2595L9.50876 19.6397C10.1495 20.2805 11.2612 19.8106 11.2706 18.895L11.3241 13.6836C11.3299 13.116 10.8745 12.6606 10.307 12.6665L5.09552 12.7199C4.17996 12.7293 3.71007 13.841 4.35083 14.4818L5.73108 15.862Z" fill="black" fill-opacity="0.5"/>
</svg>
